<svg xmlns="http://www.w3.org/2000/svg" xmlns:xlink="http://www.w3.org/1999/xlink" viewBox="0 0 226.5 244.19"><defs><style>.cls-1,.cls-5,.cls-6{fill:none;}.cls-2{clip-path:url(#clip-path);}.cls-3{clip-path:url(#clip-path-2);}.cls-4{fill:#1b1464;stroke:#1b1464;stroke-width:0.7px;}.cls-4,.cls-5,.cls-6{stroke-miterlimit:10;}.cls-5,.cls-6{stroke:#fff;stroke-width:13px;}.cls-6{stroke-linecap:round;}.cls-7{fill:#fff;}</style><clipPath id="clip-path"><circle class="cls-1" cx="113.58" cy="124.29" r="112.9"/></clipPath><clipPath id="clip-path-2"><circle class="cls-1" cx="113.25" cy="124.29" r="112.9"/></clipPath></defs><g id="Layer_3" data-name="Layer 3"><g class="cls-2"><g class="cls-3"><circle class="cls-4" cx="113.25" cy="124.29" r="112.9"/><line class="cls-5" x1="92.46" y1="6.5" x2="92.46" y2="240.88"/><line class="cls-5" x1="140.34" y1="7.1" x2="140.34" y2="241.48"/><line class="cls-6" x1="188.21" y1="6.5" x2="188.21" y2="72.9"/><line class="cls-6" x1="188.21" y1="166.89" x2="188.21" y2="233.29"/><line class="cls-6" x1="42.93" y1="10.9" x2="42.93" y2="77.3"/><line class="cls-6" x1="42.93" y1="171.28" x2="42.93" y2="237.69"/><path class="cls-7" d="M196.38,87.29c3.17.81,7.18,4.47,15.06,11.74,7.44,6.87,9.38,9.39,8.78,11.75s-3.43,3-3.81,6.13c-.19,1.59.28,3,1,5.1,1.11,3.41,2,3.6,1.91,5.11-.24,2.56-3,3-3.1,5.36-.06,1.94,1.73,2.13,2.15,4.6.36,2.14-.93,2.42-1.67,6.89-.49,2.94.14,3.46-.48,4.85s-2,2.82-6.67,3.83a20.08,20.08,0,0,1-3.8.49,63.57,63.57,0,0,1-12.64-1c-7.33-1.16-9-1.9-10.47-3.32-.74-.72-2.31-2.25-1.92-3.57.75-2.6,8.57-2.73,12.86-2.56,3.93.16,6.22.75,11.44.51a18.83,18.83,0,0,0,4.53-.51c0-.33-18.57-2.43-30-2.55a6.73,6.73,0,0,1-5-1.79c-1.72-1.84-2.51-5.5-1.19-7.66,1.56-2.54,7.1-2.24,18.11-1.53a83.91,83.91,0,0,0,9.77.26c1.05,0,7.74-.32,7.76-1s-7.57-1.9-14.91-2.33c-13.44-.79-19.44,1.35-21.92-2.56a6.69,6.69,0,0,1-.24-6.63c2.28-3.6,8.74-1.15,23.83-1,5,.05,11.88-.16,11.91-.76s-7.3-2-14.77-2.55c-11.48-.88-16.69.59-19.07-3.07a6.55,6.55,0,0,1-.56-6.16c3.56-6.75,24.2,0,24.63-2,.2-.9-4-2.68-5.72-3.32a22.83,22.83,0,0,0-8.58-1.27c-4.7.13-10.63.3-13.34,4.59a12.39,12.39,0,0,0-1.67,6.64c.07,2.1.67,2.68.72,5.36,0,2.33.08,4.25-1.19,5.62a4.23,4.23,0,0,1-4.77,1c-.34-.17-1.77-.91-2.48-4.85-.6-3.3-.12-5.82.86-10.72,1.88-9.34,2-9.78,2.7-10.47,1.21-1.27,2.09-1.3,10.33-3.83,6.44-2,5.72-1.92,7.19-2.26C184.64,87.19,190.56,85.79,196.38,87.29Z"/><path class="cls-7" d="M31.36,91.68c-3.17.82-7.18,4.47-15.06,11.75-7.44,6.86-9.38,9.39-8.78,11.74s3.43,3,3.81,6.13c.19,1.59-.28,3-.95,5.11-1.11,3.4-2.05,3.59-1.91,5.1.24,2.57,3,3,3.1,5.37.07,1.93-1.73,2.13-2.15,4.59-.36,2.14.93,2.43,1.67,6.89.49,2.94-.14,3.47.48,4.86s2,2.81,6.67,3.83a21,21,0,0,0,3.8.49,65.06,65.06,0,0,0,12.64-1c7.33-1.16,9-1.9,10.47-3.32.74-.73,2.31-2.25,1.93-3.58-.76-2.59-8.58-2.72-12.87-2.55-3.93.16-6.22.74-11.44.51a18.83,18.83,0,0,1-4.53-.51c0-.33,18.57-2.43,30-2.55a6.77,6.77,0,0,0,5-1.79c1.72-1.84,2.51-5.51,1.19-7.66-1.56-2.54-7.1-2.24-18.11-1.53a84.28,84.28,0,0,1-9.77.25c-1,0-7.74-.32-7.76-1s7.57-1.9,14.91-2.33c13.44-.79,19.44,1.35,21.92-2.55a6.71,6.71,0,0,0,.24-6.64c-2.28-3.59-8.74-1.15-23.83-1-5,0-11.88-.16-11.91-.77s7.3-2,14.77-2.55c11.48-.88,16.69.6,19.07-3.06a6.55,6.55,0,0,0,.56-6.16c-3.56-6.76-24.2,0-24.63-2-.2-.9,4-2.69,5.72-3.32a22.75,22.75,0,0,1,8.58-1.28c4.7.14,10.63.3,13.34,4.6a12.35,12.35,0,0,1,1.67,6.63c-.07,2.11-.67,2.69-.72,5.37,0,2.33-.08,4.25,1.19,5.61a4.21,4.21,0,0,0,4.77,1c.34-.17,1.77-.91,2.48-4.84.6-3.31.12-5.83-.86-10.73-1.88-9.34-2-9.78-2.7-10.47C62.18,97.05,61.3,97,53.06,94.49c-6.44-2-5.72-1.91-7.19-2.26C43.1,91.58,37.18,90.19,31.36,91.68Z"/></g></g></g></svg>