<svg xmlns="http://www.w3.org/2000/svg" viewBox="0 0 226.5 226.5"><defs><style>.cls-1{fill:#1b1464;stroke:#1b1464;stroke-width:0.7px;}.cls-1,.cls-2{stroke-miterlimit:10;}.cls-2,.cls-4{fill:none;}.cls-2,.cls-3,.cls-4{stroke:#fff;stroke-linecap:round;}.cls-2{stroke-width:9px;}.cls-3{fill:#fff;stroke-width:1.47px;}.cls-3,.cls-4{stroke-linejoin:round;}.cls-4{stroke-width:5px;}</style></defs><g id="Layer_4" data-name="Layer 4"><circle class="cls-1" cx="113.25" cy="113.25" r="112.9"/><path class="cls-2" d="M142.86,172.54a66.77,66.77,0,0,1-15.33,5.3A67.49,67.49,0,0,1,54,144.24a67.58,67.58,0,0,1,3.79-70.88,68.79,68.79,0,0,1,35.1-25.88,67.57,67.57,0,0,1,81.91,36.66,68.73,68.73,0,0,1,5.07,38.55"/><polygon class="cls-3" points="156.26 163.29 135.25 164.63 146.92 182.16 156.26 163.29"/><path class="cls-4" d="M157.47,146.73l11.8,13.71h0a114.59,114.59,0,0,1,27.23-30.65"/></g></svg>