<svg xmlns="http://www.w3.org/2000/svg" xmlns:xlink="http://www.w3.org/1999/xlink" viewBox="0 0 226.5 242.75"><defs><style>.cls-1,.cls-5{fill:none;}.cls-2{clip-path:url(#clip-path);}.cls-3{fill:#1b1464;stroke:#1b1464;stroke-width:0.7px;}.cls-3,.cls-5{stroke-miterlimit:10;}.cls-4{fill:#fff;}.cls-5{stroke:#fff;stroke-linecap:round;stroke-width:6px;}</style><clipPath id="clip-path"><circle class="cls-1" cx="113.25" cy="113.25" r="112.9"/></clipPath></defs><g id="Layer_3" data-name="Layer 3"><g class="cls-2"><circle class="cls-3" cx="113.25" cy="113.25" r="112.9"/><circle class="cls-4" cx="104.67" cy="86.98" r="22.83"/><path class="cls-4" d="M89.89,186.58c-.29-4.05-1.49-22.8,2-37.81a55.31,55.31,0,0,1,4.78-13.53,36,36,0,0,1,5.8-8.53c2.22-2.36,5.63-6,10.67-6.93,8.19-1.54,14.7,5,15.43,5.75a45,45,0,0,1,6,7.29c1.33,2.07,4.29,7.18,6.56,16.74,3.56,15,2.87,30.53,2.36,37.44"/><path class="cls-4" d="M68.69,166.05c1.59-10.54,11.89-34.21,29.85-43.85a41.53,41.53,0,0,1,19.81-5l.26,0c4.19.23,15.75.88,27.74-3.3A45.91,45.91,0,0,0,162,105.54c10.22-8.69,17-15.06,17-15.06,1-.91,3.16-3,5.61-2.56A4.74,4.74,0,0,1,188.22,91c.87,2.79-1.94,6-4.34,8.42-21.52,21.52-40.6,25.53-40.6,25.53-12.66,2.67-13.87-.58-25.18,3.08-6.88,2.23-14.94,6.85-24.35,13-6.64,4.34-14.41,12-15.26,23.48-.27,3.71-1.2,11.15-5.16,13a4.24,4.24,0,0,1-3.83,0C67,176,68,170.61,68.69,166.05Z"/><line class="cls-5" x1="72.96" y1="50.77" x2="84.16" y2="59.81"/><line class="cls-5" x1="125.35" y1="44.47" x2="116.61" y2="55.91"/><line class="cls-5" x1="98.11" y1="38.41" x2="99.83" y2="52.73"/><path class="cls-4" d="M141,242.74H126.53l-3.07-37.61-12.76.29-2.81,37.32s-6.54,0-15.55,0a2.84,2.84,0,0,1-2-1,3.41,3.41,0,0,1-.84-2.28V184.86a3.08,3.08,0,0,1,2.88-3.23H141a3.08,3.08,0,0,1,2.89,3.23V239.5A3.09,3.09,0,0,1,141,242.74Z"/></g></g></svg>