<svg xmlns="http://www.w3.org/2000/svg" xmlns:xlink="http://www.w3.org/1999/xlink" viewBox="0 0 239.81 226.5"><defs><style>.cls-1{fill:none;}.cls-2{clip-path:url(#clip-path);}.cls-3{fill:#1b1464;stroke:#1b1464;stroke-width:0.7px;}.cls-3,.cls-4{stroke-miterlimit:10;}.cls-4{fill:#fff;stroke:#fff;stroke-width:2.29px;}</style><clipPath id="clip-path"><circle class="cls-1" cx="126.56" cy="113.25" r="112.9"/></clipPath></defs><g id="Layer_4" data-name="Layer 4"><g class="cls-2"><circle class="cls-3" cx="126.56" cy="113.25" r="112.9"/><path class="cls-4" d="M114.71,48,80.05,79.24l35.13,40.15c-.12-13.89-.2-22.81-.2-22.81s12.29-1.59,18.07,4.75c3.39,3.71,4.6,10.66,3.34,16-1.62,6.91-10.81,5.19-14.71,13.41-1.46,3.09-1.55,5.92-1.62,9.5-.23,11-.45,22.68-.6,35.37,10.7-8.36,17-14,20.78-18.18,1.07-1.16,3.73-4.18,6.64-3.74,2.16.33,3.49,2.42,4,3.12,2.29,3.45,7.5,9,19.53,18.69,1.71-16.72,2.58-29.56,2.7-35.72a33.4,33.4,0,0,0-.84-8.1c-.91-4-1.43-6.26-3.32-8.1-3.05-3-6.77-2-8.1-5a5.41,5.41,0,0,1-.21-3.33c1.34-7.33-10.77-42.9-33.64-45.69a26.1,26.1,0,0,0-12.46,1.67Q114.6,59.66,114.71,48Z"/></g></g></svg>