<svg xmlns="http://www.w3.org/2000/svg" xmlns:xlink="http://www.w3.org/1999/xlink" viewBox="0 0 226.5 226.66"><defs><style>.cls-1,.cls-5{fill:none;}.cls-2{fill:#1b1464;stroke:#1b1464;stroke-miterlimit:10;stroke-width:0.7px;}.cls-3{clip-path:url(#clip-path);}.cls-4{fill:#fff;}.cls-5{stroke:#fff;stroke-linecap:round;stroke-linejoin:round;stroke-width:4.38px;}</style><clipPath id="clip-path"><circle class="cls-1" cx="113.25" cy="113.76" r="112.9"/></clipPath></defs><g id="Layer_2" data-name="Layer 2"><circle class="cls-2" cx="113.25" cy="113.25" r="112.9"/><g class="cls-3"><circle class="cls-4" cx="59.64" cy="89.05" r="22.83"/><path class="cls-4" d="M32.86,184.82c-.29-4-1.49-22.8,2-37.81a55.62,55.62,0,0,1,4.77-13.53A36.41,36.41,0,0,1,45.42,125c2.22-2.36,5.63-6,10.67-6.93,8.19-1.54,14.7,5,15.43,5.75a45,45,0,0,1,6,7.29c1.33,2.07,4.29,7.18,6.56,16.74,3.56,15,2.87,30.53,2.36,37.44"/><path class="cls-4" d="M17,172.23c6.42-41.82,24.55-51.79,24.55-51.79a36.83,36.83,0,0,1,19.81-5c1.45.08,15.58.85,25,11.54,4.65,5.26,12.8,18.35,15.83,18.13l.3,0c2.4-.6,3.86-3.23,4.29-4.05,2.88-5.46,10-12.3,13.28-15.06,3-2.48,5.85-4.82,8.17-3.83,1.83.78,2.88,3.45,2.55,5.61s-1.92,3.37-3.32,4.6l-8.17,9.19c-5.82,6.55-11.69,15.57-16.08,16.6l-.49.09c-1.09.16-3.38.12-7.17-2.39-7.73-5.13-8.49-10.66-14.33-17.4-1.84-2.13-9.75-11.69-20.14-12.22-12.66-.65-22.22,12.39-23.74,14.55-4.07,5.77-9.25,16.84-10.47,29.62-.42,4.38-.51,10.35-3.35,11.33-1.75.61-4.1-.81-5.33-2.39C16.38,177.05,16.68,174,17,172.23Z"/><path class="cls-5" d="M99.21,135.71q0-12.14-.1-24.26l-12.25-1.27L99.62,96.39V44.05h93.71V170.94l-94.12,1.28V163"/><line class="cls-5" x1="111.07" y1="64.79" x2="181.79" y2="64.79"/><line class="cls-5" x1="111.07" y1="77.5" x2="181.79" y2="77.5"/><line class="cls-5" x1="111.07" y1="90.26" x2="181.79" y2="90.26"/><line class="cls-5" x1="135.62" y1="102.85" x2="181.79" y2="102.85"/><path class="cls-4" d="M84,226.65H69.5l-3.07-33.49-12.76.25-2.81,33.24s-6.54,0-15.55,0a3,3,0,0,1-2-.85,2.87,2.87,0,0,1-.84-2V175.1a2.89,2.89,0,0,1,2.88-2.88H84a2.9,2.9,0,0,1,2.89,2.88v48.66A2.9,2.9,0,0,1,84,226.65Z"/></g></g></svg>