<svg xmlns="http://www.w3.org/2000/svg" xmlns:xlink="http://www.w3.org/1999/xlink" viewBox="0 0 226.5 226.5"><defs><style>.cls-1,.cls-4,.cls-5,.cls-6{fill:none;}.cls-2{clip-path:url(#clip-path);}.cls-3{fill:#1b1464;stroke:#1b1464;stroke-width:0.7px;}.cls-3,.cls-4,.cls-5,.cls-6{stroke-miterlimit:10;}.cls-4,.cls-5,.cls-6{stroke:#fff;stroke-linecap:round;}.cls-4{stroke-width:10px;}.cls-5{stroke-width:13px;}.cls-6{stroke-width:4px;}</style><clipPath id="clip-path"><circle class="cls-1" cx="113.25" cy="113.25" r="112.9"/></clipPath></defs><g id="Layer_4" data-name="Layer 4"><g class="cls-2"><circle class="cls-3" cx="113.25" cy="113.25" r="112.9"/><circle class="cls-4" cx="144.55" cy="124.25" r="35.71"/><line class="cls-5" x1="173.94" y1="151.42" x2="215.22" y2="189.15"/><path class="cls-6" d="M69.35,69.45a37.83,37.83,0,0,1,11.74-7.83A36.54,36.54,0,0,1,95,58.7a34.85,34.85,0,0,1,10.9,1.76"/><path class="cls-6" d="M56.3,89.44a51,51,0,0,1,7.93-9.64A44.12,44.12,0,0,1,78,70.51a41.36,41.36,0,0,1,9.62-2.72"/><path class="cls-6" d="M106.63,68.18a27.38,27.38,0,0,1,18.41,6"/><path class="cls-6" d="M73.53,81.16A41.88,41.88,0,0,1,89.4,73.8a44.15,44.15,0,0,1,19.36.19,45.29,45.29,0,0,1,18.39,7.75,41.89,41.89,0,0,1,5.27,4.54"/><path class="cls-6" d="M49.52,115.24a77.11,77.11,0,0,1,9.06-13.18,63.7,63.7,0,0,1,17.23-14.9C81.71,83.77,89,79.63,98.65,80c12.73.48,21.54,8.41,25.75,12.2A52.36,52.36,0,0,1,135,105.51"/><path class="cls-6" d="M92,91A75.67,75.67,0,0,0,53.25,126"/><path class="cls-6" d="M109.92,91.61a34.65,34.65,0,0,1,8.13,3.48c6.15,3.63,9.62,8.27,12.78,12.59a65.21,65.21,0,0,1,6.87,11.8"/><path class="cls-6" d="M57.42,139.47a51.06,51.06,0,0,1,7.59-15,48.49,48.49,0,0,1,4.45-5.22"/><path class="cls-6" d="M86.54,106.1a28.43,28.43,0,0,1,6.35-5.2c2.69-1.61,7-4.18,12.19-3.48,5.71.77,9.26,5.15,10.26,6.39,5.57,6.86,2.47,12.56,6.78,20.52,1.68,3.11,5,7.43,12.09,11.13"/><path class="cls-6" d="M62.68,147.56a126.23,126.23,0,0,1,12.78-19.75c6.34-8,11.6-12.63,17.43-16.07,4.71-2.78,7.87-4.36,10.84-3.29,2.72,1,4.31,3.72,5.42,5.62,2,3.38,1.88,5.37,2.9,8.71,2.1,6.83,6.44,11.42,11,16.26a61.11,61.11,0,0,0,6.67,6.08"/><path class="cls-6" d="M76,140.2a39.35,39.35,0,0,0-3.29,5,38.68,38.68,0,0,0-4,10.95"/><path class="cls-6" d="M84.37,130.91c.18-.33,4.77-8.1,12.78-7.94a12,12,0,0,1,7.55,2.71c4.25,3.72,3,9,5,14.91,1.43,4.1,4.73,9.31,13,14.13"/><path class="cls-6" d="M76.13,162l6.11-11.13c3.74-6.81,5.67-10.24,8.52-11.42,2.64-1.1,6.63-1.31,8.9.77,2.72,2.49.85,6.28,2.33,11.23.93,3.14,3.39,7.38,10.51,11.38"/><path class="cls-6" d="M91.92,150.85A26.43,26.43,0,0,0,90.76,159a26.12,26.12,0,0,0,1.51,8.41"/></g></g></svg>