<svg xmlns="http://www.w3.org/2000/svg" viewBox="0 0 226.5 226.5"><defs><style>.cls-1,.cls-3,.cls-4,.cls-5,.cls-6{fill:#1b1464;}.cls-1,.cls-4,.cls-5,.cls-6{stroke:#1b1464;}.cls-1,.cls-4,.cls-5,.cls-6,.cls-7{stroke-miterlimit:10;}.cls-1{stroke-width:0.7px;}.cls-2{fill:#fff;}.cls-4{stroke-width:0.59px;}.cls-5{stroke-width:0.55px;}.cls-6{stroke-width:0.74px;}.cls-7{fill:none;stroke:#fff;stroke-linecap:round;stroke-width:4.09px;}</style></defs><g id="Layer_1" data-name="Layer 1"><circle class="cls-1" cx="113.25" cy="113.25" r="112.9"/></g><g id="Layer_3" data-name="Layer 3"><path class="cls-2" d="M179.77,135.79a36.32,36.32,0,0,0,4.79-15.07A35.27,35.27,0,0,0,121.1,97.05a34.91,34.91,0,0,0-2.72,37,36.33,36.33,0,0,0,14.38,14.44A36,36,0,0,0,151.05,153a34.21,34.21,0,0,0,13.62-3.52,4.22,4.22,0,0,0,1.13-3.05,4,4,0,0,0-1.18-2.61,3.83,3.83,0,0,0-2.66-1.1,3.51,3.51,0,0,0-1.61.47,24.45,24.45,0,0,1-6.22,1.94,23.85,23.85,0,0,1-8.2.13,28.12,28.12,0,0,1-10.38-3.55,27.82,27.82,0,0,1-8.65-8.08,28.63,28.63,0,0,1-5-17.1,31.62,31.62,0,0,1,.81-5.71A32.21,32.21,0,0,1,124,106.9a27.62,27.62,0,0,1,53,12.57,26.2,26.2,0,0,1-5,14.16,54.75,54.75,0,0,1-7.59,7.53v0a4,4,0,0,1,2.19.44,4.2,4.2,0,0,1,2,4.25c-.23,1.21-.91,1.8-.75,2s3-1.61,5.35-3.9A39.73,39.73,0,0,0,179.77,135.79Z"/><rect class="cls-2" x="134.15" y="75.36" width="12.41" height="11.39" rx="1.06" transform="translate(-17.59 44.71) rotate(-17.05)"/><circle class="cls-3" cx="161.47" cy="146.9" r="2.31"/><rect class="cls-4" x="139.21" y="80.52" width="4.07" height="7.32" rx="2.03" transform="translate(-18.47 45.1) rotate(-17.05)"/><rect class="cls-5" x="138.08" y="77.12" width="4.07" height="6.31" rx="1.89" transform="translate(104.44 237.77) rotate(-107.05)"/><path class="cls-5" d="M147.68,84.07a29.49,29.49,0,0,1,0,3.24,30.92,30.92,0,0,1-.49,4.3c3,2.36,7,2.36,9.35.32a6.14,6.14,0,0,0,2-5.93c-.59-2.29-2.65-3.31-5.48-4.7-1.07-.53-4.59-2.27-5.57-1.17C147.08,80.63,147.5,81.2,147.68,84.07Z"/><path class="cls-6" d="M168.26,135.16c4.68,1.42,6.93,5.06,7.25,10.47l-8.77,5.18v-7.16s-4.52-2.52-4.41-2.77,2.82-4.76,2.82-4.76Z"/><path class="cls-6" d="M113,148c1-1.34,11.48-15.36,6.1-31.33a31.76,31.76,0,0,0-10.78-14.85Z"/><path class="cls-2" d="M103,154.22a36.29,36.29,0,0,0,9-13A35.27,35.27,0,0,0,58.27,100a34.94,34.94,0,0,0-13.44,34.56,36.4,36.4,0,0,0,9.52,18,35.86,35.86,0,0,0,16.17,9.64,33.78,33.78,0,0,0,14.06.63,4.2,4.2,0,0,0,2-2.58,4,4,0,0,0-.37-2.84A3.9,3.9,0,0,0,84,155.57a3.68,3.68,0,0,0-1.68,0,24.37,24.37,0,0,1-6.51,0,23.39,23.39,0,0,1-7.88-2.28A28,28,0,0,1,59,146.87a27.69,27.69,0,0,1-5.9-10.26,28.64,28.64,0,0,1,.24-17.81,27.54,27.54,0,0,1,4.82-8.54,28.14,28.14,0,0,1,29.53-8.43,27.62,27.62,0,0,1,12.69,8.49,28.14,28.14,0,0,1,6.43,16,27.66,27.66,0,0,1-1.7,11.53,26.15,26.15,0,0,1-8.91,12.08,54.43,54.43,0,0,1-9.47,5v0a4,4,0,0,1,2,1.06,4.2,4.2,0,0,1,.7,4.67c-.57,1.08-1.39,1.45-1.29,1.65.2.38,3.3-.68,6.27-2.16A39.84,39.84,0,0,0,103,154.22Z"/><rect class="cls-2" x="75.17" y="84.64" width="12.41" height="11.39" rx="1.06"/><circle class="cls-3" cx="82.26" cy="159.48" r="2.31"/><rect class="cls-4" x="79.27" y="89.93" width="4.07" height="7.32" rx="2.03"/><rect class="cls-5" x="79.34" y="86.37" width="4.07" height="6.31" rx="1.89" transform="translate(-8.15 170.89) rotate(-90)"/><path class="cls-5" d="M87.5,95.36a27.91,27.91,0,0,1-.94,3.11,30.14,30.14,0,0,1-1.73,4c2.23,3.14,6,4.31,8.85,3a6.13,6.13,0,0,0,3.66-5.09c.11-2.36-1.57-3.94-3.86-6.1-.87-.82-3.72-3.52-5-2.75C87.93,91.9,88.17,92.57,87.5,95.36Z"/><path class="cls-6" d="M92.19,150.25c4.07,2.72,5.15,6.86,3.87,12.13l-9.91,2.38,2.09-6.85s-3.58-3.73-3.41-3.94,4.11-3.72,4.11-3.72Z"/><rect class="cls-7" x="87.33" y="61.98" width="14.01" height="7.63" rx="1.02" transform="translate(-17.97 40.99) rotate(-22.44)"/><rect class="cls-7" x="110.97" y="60.42" width="14.01" height="7.63" rx="1.02" transform="translate(22.73 -30.49) rotate(16.28)"/><line class="cls-7" x1="82.13" y1="80.19" x2="88.9" y2="67.92"/><line class="cls-7" x1="122.56" y1="65.21" x2="134.48" y2="72.57"/><line class="cls-7" x1="99.2" y1="63.59" x2="113.21" y2="63.31"/></g></svg>